<?xml version="1.0" encoding="utf-8"?>
<svg width="100%" height="100%" viewBox="0 0 149 55" fill="none" xmlns="http://www.w3.org/2000/svg">
    <g clip-path="url(#clip0_1539_793)">
        <path fill-rule="evenodd" clip-rule="evenodd"
            d="M107.576 14.8125H107.627C114.96 14.8125 120.786 20.6281 120.786 27.8863C120.786 32.2111 118.676 36.038 115.462 38.4254L118.625 41.9544L119.775 43.2404L116.61 46.0249L111.591 40.4141C110.336 40.8112 108.98 41.0097 107.573 41.0097C100.239 41.0097 94.3125 35.1942 94.3125 27.9359C94.3125 20.6777 100.239 14.8125 107.573 14.8125H107.576ZM116.567 27.9359C116.567 31.0182 115.011 33.7515 112.599 35.3431L107.727 29.875L104.613 32.6594L108.33 36.8354C108.079 36.8354 107.828 36.885 107.576 36.885C102.553 36.885 98.5345 32.9076 98.5345 27.9375C98.5345 22.9673 102.553 18.9403 107.576 18.9403C112.599 18.9403 116.567 22.9673 116.567 27.9375V27.9359Z"
            fill="#F5F5FC"></path>
        <path
            d="M78.3572 16.1385C84.937 16.1385 90.3118 21.4577 90.3118 27.9697C90.3118 34.4818 84.937 39.7514 78.3572 39.7514C71.7775 39.7514 66.4531 34.4818 66.4531 27.9697V9.92578H70.2209V19.3712C72.331 17.3826 75.244 16.14 78.3572 16.14V16.1385ZM78.3572 36.0237C82.8772 36.0237 86.5945 32.445 86.5945 27.9713C86.5945 23.4975 82.8772 19.9188 78.3572 19.9188C73.8372 19.9188 70.2209 23.4975 70.2209 27.9713C70.2209 32.445 73.8372 36.0237 78.3572 36.0237Z"
            fill="#F5F5FC"></path>
        <path
            d="M128.643 36.4312V46.0256H124.875V27.5333C125.026 21.1702 130.3 16.1504 136.729 16.1504C143.157 16.1504 148.683 21.3703 148.683 27.8824V27.9708C148.634 34.4425 143.278 39.664 136.729 39.664C133.614 39.664 130.751 38.4215 128.643 36.4328V36.4312ZM136.781 19.8284C132.31 19.8284 128.693 23.4071 128.644 27.7815V27.9801C128.695 32.3546 132.311 35.8836 136.781 35.8836C141.25 35.8836 144.867 32.3049 144.867 27.8808C144.867 23.4567 141.25 19.8284 136.781 19.8284Z"
            fill="#F5F5FC"></path>
        <path fill-rule="evenodd" clip-rule="evenodd"
            d="M48.2319 8.66068V0.988281L23.662 14.9416C19.7444 17.5027 17.0538 21.7329 16.6406 26.6007L23.7361 30.6215C23.4759 29.79 23.3355 28.9043 23.3355 27.9891C23.3355 24.6942 25.1366 21.7903 27.8366 20.2437L48.2335 8.66068H48.2319Z"
            fill="#F5F5FC"></path>
        <path fill-rule="evenodd" clip-rule="evenodd"
            d="M48.2319 8.66068V0.988281L23.662 14.9416C19.7444 17.5027 17.0538 21.7329 16.6406 26.6007L23.7361 30.6215C23.4759 29.79 23.3355 28.9043 23.3355 27.9891C23.3355 24.6942 25.1366 21.7903 27.8366 20.2437L48.2335 8.66068H48.2319Z"
            fill="url(#paint0_linear_1539_793)"></path>
        <path fill-rule="evenodd" clip-rule="evenodd"
            d="M7.4423 24.1523L0.6875 27.9885L24.4578 41.4874C26.7825 42.8075 29.5299 43.4807 32.4081 43.4807C34.7596 43.4807 36.9896 42.9766 38.9957 42.0722L39.0367 34.0864C38.4216 34.7333 37.7119 35.2886 36.9265 35.7323C35.5955 36.4847 34.053 36.9159 32.4081 36.9159C30.7632 36.9159 29.175 36.5017 27.8345 35.7354L7.4423 24.1523Z"
            fill="#F5F5FC"></path>
        <path fill-rule="evenodd" clip-rule="evenodd"
            d="M7.4423 24.1523L0.6875 27.9885L24.4578 41.4874C26.7825 42.8075 29.5299 43.4807 32.4081 43.4807C34.7596 43.4807 36.9896 42.9766 38.9957 42.0722L39.0367 34.0864C38.4216 34.7333 37.7119 35.2886 36.9265 35.7323C35.5955 36.4847 34.053 36.9159 32.4081 36.9159C30.7632 36.9159 29.175 36.5017 27.8345 35.7354L7.4423 24.1523Z"
            fill="url(#paint1_linear_1539_793)"></path>
        <path fill-rule="evenodd" clip-rule="evenodd"
            d="M48.2329 54.9888V27.9896C48.2329 27.9741 48.2329 28.0051 48.2329 27.9896C48.2329 22.7108 45.5613 17.9702 41.4749 15.1562L34.3164 19.2608C35.2485 19.4563 36.1269 19.7929 36.9281 20.2474C39.5414 21.7257 41.3362 24.4481 41.4749 27.594C41.4749 27.4606 41.4813 27.7259 41.4749 27.594V51.1526L48.2329 54.9904V54.9888Z"
            fill="#F5F5FC"></path>
        <path fill-rule="evenodd" clip-rule="evenodd"
            d="M48.2329 54.9888V27.9896C48.2329 28.0051 48.2329 27.9741 48.2329 27.9896C48.2329 22.7108 45.5613 17.9702 41.4749 15.1562L34.3164 19.2608C35.2485 19.4563 36.1269 19.7929 36.9281 20.2474C39.5414 21.7257 41.3362 24.4481 41.4749 27.594C41.4813 27.7259 41.4749 27.4606 41.4749 27.594V51.1526L48.2329 54.9904V54.9888Z"
            fill="url(#paint2_linear_1539_793)"></path>
    </g>
    <defs>
        <linearGradient id="paint0_linear_1539_793" x1="42.3571" y1="-2.08006" x2="20.6854" y2="39.407"
            gradientUnits="userSpaceOnUse">
            <stop stop-color="#33E1E5"></stop>
            <stop offset="0.5" stop-color="#67ABE5"></stop>
            <stop offset="1" stop-color="#0B1319"></stop>
        </linearGradient>
        <linearGradient id="paint1_linear_1539_793" x1="0.916182" y1="34.0306" x2="48.2974" y2="33.4774"
            gradientUnits="userSpaceOnUse">
            <stop stop-color="#33E1E5"></stop>
            <stop offset="0.5" stop-color="#67ABE5"></stop>
            <stop offset="1" stop-color="#0B1319"></stop>
        </linearGradient>
        <linearGradient id="paint2_linear_1539_793" x1="53.3696" y1="52.0942" x2="29.9251" y2="10.492"
            gradientUnits="userSpaceOnUse">
            <stop stop-color="#33E1E5"></stop>
            <stop offset="0.5" stop-color="#67ABE5"></stop>
            <stop offset="1" stop-color="#0B1319"></stop>
        </linearGradient>
        <clipPath id="clip0_1539_793">
            <rect width="148" height="54" fill="white" transform="translate(0.6875 0.988281)"></rect>
        </clipPath>
    </defs>
</svg>